<svg width="70" height="47" viewBox="0 0 70 47" fill="none" xmlns="http://www.w3.org/2000/svg">
<g id="logo">
<path id="Vector" d="M19.8224 34.0672C16.2438 34.0672 13.3424 31.1453 13.3424 27.5416C13.3424 23.9378 16.2438 21.0159 19.8224 21.0159C22.7683 21.0159 25.2551 22.9955 26.0423 25.7055L37.247 19.1229C34.1299 12.5919 27.499 8.08301 19.8224 8.08301C9.15085 8.08301 0.5 16.7956 0.5 27.5415C0.5 38.2883 9.15085 47.0001 19.8224 47.0001C30.494 47.0001 39.1448 38.2883 39.1448 27.5415H26.3024C26.3024 31.1453 23.4009 34.0672 19.8224 34.0672Z" fill="#42454A"/>
<path id="Vector_2" d="M54.3224 12.2568C45.94 12.2568 39.1448 19.1006 39.1448 27.5413H50.2929C50.2929 25.2998 52.0965 23.4835 54.3224 23.4835C56.5474 23.4835 58.3518 25.2998 58.3518 27.5413C58.3518 29.7828 56.5474 31.5992 54.3224 31.5992C52.3981 31.5992 50.789 30.2415 50.3887 28.4244L40.6347 34.1543C43.0838 39.2843 48.2918 42.8258 54.3224 42.8258C62.7048 42.8258 69.5 35.9828 69.5 27.5414C69.4999 19.1006 62.7048 12.2568 54.3224 12.2568Z" fill="#42454A"/>
<path id="Vector_3" d="M38.2316 10.2289C41.9933 10.2289 45.7312 9.69808 49.3677 8.72895C50.9488 8.30759 52.6094 8.08303 54.3223 8.08303C55.2528 8.08303 56.1674 8.14912 57.0624 8.27743C56.6183 5.96225 55.3983 3.92496 53.6867 2.45111C51.9118 0.922598 49.6082 0 47.0898 0H21.2173C24.4814 6.09059 30.877 10.2289 38.2316 10.2289Z" fill="#42454A"/>
</g>
</svg>
